<svg width="144" height="150" viewBox="0 0 144 150" fill="none" xmlns="http://www.w3.org/2000/svg">
<path fill-rule="evenodd" clip-rule="evenodd" d="M24.92 107.675C24.92 107.675 16.7073 95.9243 21.8394 82.111C26.9731 68.3045 53.8058 47.734 53.8058 36.2784C53.8058 36.2784 53.8058 47.734 45.0104 56.2578C36.2149 64.7815 21.9522 79.6013 24.4804 96.2181C24.4804 96.2181 27.854 100.993 31.5915 102.023C31.5915 102.023 36.3564 102.17 43.5417 99.3054C43.5417 99.3054 41.9298 87.4799 48.6737 81.8965C48.6737 81.8965 42.0763 78.6623 37.3855 79.6925C37.3855 79.6925 44.5691 74.403 51.9009 75.5818C59.2327 76.7539 65.8301 68.0883 67.0057 59.8601C68.1814 51.6303 78.2957 26.2195 61.2858 8C61.2858 8 59.8205 17.9914 53.6593 19.4573C47.5032 20.9249 21.9859 32.6811 21.105 50.6001C21.105 50.6001 20.5172 61.7618 21.3981 64.996C21.3981 64.996 17.2951 54.0555 19.2001 43.9172C19.2001 43.9172 13.3269 58.2675 17.8829 69.4816C17.8829 69.4816 12.0148 59.7858 11.7268 51.8515C7.98427 68.8415 9.62309 96.7045 24.92 107.675ZM136 92.5432C136 92.5432 99.0463 94.3046 69.1313 118.396C69.1313 118.396 53.8799 131.909 34.8186 130.441C34.8186 130.441 45.3776 129.264 52.1215 124.858C58.8655 120.452 69.7192 109.283 73.8238 108.405C73.8238 108.405 63.851 108.994 60.4774 106.645C57.102 104.294 51.5337 100.619 43.4676 103.115C35.4014 105.613 33.4965 107.081 26.4577 103.115C26.4577 103.115 31.0037 113.548 42.7332 115.162C42.7332 115.162 11.0598 118.543 8.71357 85.0446C8.71357 85.0446 0.500885 128.528 39.7991 136.167C39.7991 136.167 35.6945 138.811 31.5848 138.075C31.5848 138.075 46.1018 148.066 59.7363 136.167C59.7363 136.167 62.6703 133.522 65.1631 128.381C65.1631 128.381 70.7365 134.258 79.3854 131.909C79.3854 131.909 64.4405 130.21 67.9506 123.385C71.4658 116.572 105.497 96.6539 136 92.5432Z" fill="#EA812C"/>
</svg>
